<svg width="153" height="59" viewBox="0 0 153 59" fill="none" xmlns="http://www.w3.org/2000/svg">
<path d="M0.188242 11.44C0.188242 9.36 0.638242 7.51 1.53824 5.89C2.43824 4.25 3.68824 2.98 5.28824 2.08C6.90824 1.16 8.73824 0.699999 10.7782 0.699999C13.2782 0.699999 15.4182 1.36 17.1982 2.68C18.9782 4 20.1682 5.8 20.7682 8.08H15.1282C14.7082 7.2 14.1082 6.53 13.3282 6.07C12.5682 5.61 11.6982 5.38 10.7182 5.38C9.13824 5.38 7.85824 5.93 6.87824 7.03C5.89824 8.13 5.40824 9.6 5.40824 11.44C5.40824 13.28 5.89824 14.75 6.87824 15.85C7.85824 16.95 9.13824 17.5 10.7182 17.5C11.6982 17.5 12.5682 17.27 13.3282 16.81C14.1082 16.35 14.7082 15.68 15.1282 14.8H20.7682C20.1682 17.08 18.9782 18.88 17.1982 20.2C15.4182 21.5 13.2782 22.15 10.7782 22.15C8.73824 22.15 6.90824 21.7 5.28824 20.8C3.68824 19.88 2.43824 18.61 1.53824 16.99C0.638242 15.37 0.188242 13.52 0.188242 11.44ZM31.5298 22.24C29.8898 22.24 28.4098 21.89 27.0898 21.19C25.7898 20.49 24.7598 19.49 23.9998 18.19C23.2598 16.89 22.8898 15.37 22.8898 13.63C22.8898 11.91 23.2698 10.4 24.0298 9.1C24.7898 7.78 25.8298 6.77 27.1498 6.07C28.4698 5.37 29.9498 5.02 31.5898 5.02C33.2298 5.02 34.7098 5.37 36.0298 6.07C37.3498 6.77 38.3898 7.78 39.1498 9.1C39.9098 10.4 40.2898 11.91 40.2898 13.63C40.2898 15.35 39.8998 16.87 39.1198 18.19C38.3598 19.49 37.3098 20.49 35.9698 21.19C34.6498 21.89 33.1698 22.24 31.5298 22.24ZM31.5298 17.8C32.5098 17.8 33.3398 17.44 34.0198 16.72C34.7198 16 35.0698 14.97 35.0698 13.63C35.0698 12.29 34.7298 11.26 34.0498 10.54C33.3898 9.82 32.5698 9.46 31.5898 9.46C30.5898 9.46 29.7598 9.82 29.0998 10.54C28.4398 11.24 28.1098 12.27 28.1098 13.63C28.1098 14.97 28.4298 16 29.0698 16.72C29.7298 17.44 30.5498 17.8 31.5298 17.8ZM64.3714 5.08C66.4514 5.08 68.1014 5.71 69.3214 6.97C70.5614 8.23 71.1814 9.98 71.1814 12.22V22H66.0814V12.91C66.0814 11.83 65.7914 11 65.2114 10.42C64.6514 9.82 63.8714 9.52 62.8714 9.52C61.8714 9.52 61.0814 9.82 60.5014 10.42C59.9414 11 59.6614 11.83 59.6614 12.91V22H54.5614V12.91C54.5614 11.83 54.2714 11 53.6914 10.42C53.1314 9.82 52.3514 9.52 51.3514 9.52C50.3514 9.52 49.5614 9.82 48.9814 10.42C48.4214 11 48.1414 11.83 48.1414 12.91V22H43.0114V5.26H48.1414V7.36C48.6614 6.66 49.3414 6.11 50.1814 5.71C51.0214 5.29 51.9714 5.08 53.0314 5.08C54.2914 5.08 55.4114 5.35 56.3914 5.89C57.3914 6.43 58.1714 7.2 58.7314 8.2C59.3114 7.28 60.1014 6.53 61.1014 5.95C62.1014 5.37 63.1914 5.08 64.3714 5.08ZM79.8992 7.63C80.3992 6.85 81.0892 6.22 81.9692 5.74C82.8492 5.26 83.8792 5.02 85.0592 5.02C86.4392 5.02 87.6892 5.37 88.8092 6.07C89.9292 6.77 90.8092 7.77 91.4492 9.07C92.1092 10.37 92.4392 11.88 92.4392 13.6C92.4392 15.32 92.1092 16.84 91.4492 18.16C90.8092 19.46 89.9292 20.47 88.8092 21.19C87.6892 21.89 86.4392 22.24 85.0592 22.24C83.8992 22.24 82.8692 22 81.9692 21.52C81.0892 21.04 80.3992 20.42 79.8992 19.66V29.98H74.7692V5.26H79.8992V7.63ZM87.2192 13.6C87.2192 12.32 86.8592 11.32 86.1392 10.6C85.4392 9.86 84.5692 9.49 83.5292 9.49C82.5092 9.49 81.6392 9.86 80.9192 10.6C80.2192 11.34 79.8692 12.35 79.8692 13.63C79.8692 14.91 80.2192 15.92 80.9192 16.66C81.6392 17.4 82.5092 17.77 83.5292 17.77C84.5492 17.77 85.4192 17.4 86.1392 16.66C86.8592 15.9 87.2192 14.88 87.2192 13.6ZM94.1105 13.6C94.1105 11.88 94.4305 10.37 95.0705 9.07C95.7305 7.77 96.6205 6.77 97.7405 6.07C98.8605 5.37 100.111 5.02 101.491 5.02C102.671 5.02 103.701 5.26 104.581 5.74C105.481 6.22 106.171 6.85 106.651 7.63V5.26H111.781V22H106.651V19.63C106.151 20.41 105.451 21.04 104.551 21.52C103.671 22 102.641 22.24 101.461 22.24C100.101 22.24 98.8605 21.89 97.7405 21.19C96.6205 20.47 95.7305 19.46 95.0705 18.16C94.4305 16.84 94.1105 15.32 94.1105 13.6ZM106.651 13.63C106.651 12.35 106.291 11.34 105.571 10.6C104.871 9.86 104.011 9.49 102.991 9.49C101.971 9.49 101.101 9.86 100.381 10.6C99.6805 11.32 99.3305 12.32 99.3305 13.6C99.3305 14.88 99.6805 15.9 100.381 16.66C101.101 17.4 101.971 17.77 102.991 17.77C104.011 17.77 104.871 17.4 105.571 16.66C106.291 15.92 106.651 14.91 106.651 13.63ZM125.692 5.08C127.652 5.08 129.212 5.72 130.372 7C131.552 8.26 132.142 10 132.142 12.22V22H127.042V12.91C127.042 11.79 126.752 10.92 126.172 10.3C125.592 9.68 124.812 9.37 123.832 9.37C122.852 9.37 122.072 9.68 121.492 10.3C120.912 10.92 120.622 11.79 120.622 12.91V22H115.492V5.26H120.622V7.48C121.142 6.74 121.842 6.16 122.722 5.74C123.602 5.3 124.592 5.08 125.692 5.08ZM152.807 5.26L142.307 29.95H136.787L140.627 21.43L133.817 5.26H139.547L143.417 15.73L147.257 5.26H152.807ZM50.118 58H44.988L36.408 45.01V58H31.278V36.94H36.408L44.988 49.99V36.94H50.118V58ZM52.8166 49.6C52.8166 47.88 53.1366 46.37 53.7766 45.07C54.4366 43.77 55.3266 42.77 56.4466 42.07C57.5666 41.37 58.8166 41.02 60.1966 41.02C61.3766 41.02 62.4066 41.26 63.2866 41.74C64.1866 42.22 64.8766 42.85 65.3566 43.63V41.26H70.4866V58H65.3566V55.63C64.8566 56.41 64.1566 57.04 63.2566 57.52C62.3766 58 61.3466 58.24 60.1666 58.24C58.8066 58.24 57.5666 57.89 56.4466 57.19C55.3266 56.47 54.4366 55.46 53.7766 54.16C53.1366 52.84 52.8166 51.32 52.8166 49.6ZM65.3566 49.63C65.3566 48.35 64.9966 47.34 64.2766 46.6C63.5766 45.86 62.7166 45.49 61.6966 45.49C60.6766 45.49 59.8066 45.86 59.0866 46.6C58.3866 47.32 58.0366 48.32 58.0366 49.6C58.0366 50.88 58.3866 51.9 59.0866 52.66C59.8066 53.4 60.6766 53.77 61.6966 53.77C62.7166 53.77 63.5766 53.4 64.2766 52.66C64.9966 51.92 65.3566 50.91 65.3566 49.63ZM95.5579 41.08C97.6379 41.08 99.2879 41.71 100.508 42.97C101.748 44.23 102.368 45.98 102.368 48.22V58H97.2679V48.91C97.2679 47.83 96.9779 47 96.3979 46.42C95.8379 45.82 95.0579 45.52 94.0579 45.52C93.0579 45.52 92.2679 45.82 91.6879 46.42C91.1279 47 90.8479 47.83 90.8479 48.91V58H85.7479V48.91C85.7479 47.83 85.4579 47 84.8779 46.42C84.3179 45.82 83.5379 45.52 82.5379 45.52C81.5379 45.52 80.7479 45.82 80.1679 46.42C79.6079 47 79.3279 47.83 79.3279 48.91V58H74.1979V41.26H79.3279V43.36C79.8479 42.66 80.5279 42.11 81.3679 41.71C82.2079 41.29 83.1579 41.08 84.2179 41.08C85.4779 41.08 86.5979 41.35 87.5779 41.89C88.5779 42.43 89.3579 43.2 89.9179 44.2C90.4979 43.28 91.2879 42.53 92.2879 41.95C93.2879 41.37 94.3779 41.08 95.5579 41.08ZM121.736 49.36C121.736 49.84 121.706 50.34 121.646 50.86H110.036C110.116 51.9 110.446 52.7 111.026 53.26C111.626 53.8 112.356 54.07 113.216 54.07C114.496 54.07 115.386 53.53 115.886 52.45H121.346C121.066 53.55 120.556 54.54 119.816 55.42C119.096 56.3 118.186 56.99 117.086 57.49C115.986 57.99 114.756 58.24 113.396 58.24C111.756 58.24 110.296 57.89 109.016 57.19C107.736 56.49 106.736 55.49 106.016 54.19C105.296 52.89 104.936 51.37 104.936 49.63C104.936 47.89 105.286 46.37 105.986 45.07C106.706 43.77 107.706 42.77 108.986 42.07C110.266 41.37 111.736 41.02 113.396 41.02C115.016 41.02 116.456 41.36 117.716 42.04C118.976 42.72 119.956 43.69 120.656 44.95C121.376 46.21 121.736 47.68 121.736 49.36ZM116.486 48.01C116.486 47.13 116.186 46.43 115.586 45.91C114.986 45.39 114.236 45.13 113.336 45.13C112.476 45.13 111.746 45.38 111.146 45.88C110.566 46.38 110.206 47.09 110.066 48.01H116.486Z" fill="#070707"/>
</svg>
