<svg width="20" height="20" viewBox="0 0 20 20" fill="none" xmlns="http://www.w3.org/2000/svg">
<g clip-path="url(#clip0_2054_15983)">
<path d="M17.2972 9.23823C17.8829 8.82667 18.2707 8.14207 18.2707 7.3704C18.2707 6.10803 17.2497 5.08706 15.9873 5.08706C14.725 5.08706 13.704 6.10803 13.704 7.3704C13.704 8.14207 14.0879 8.82667 14.6775 9.23823C14.1749 9.41235 13.7159 9.68144 13.3281 10.0297C12.7938 9.57459 12.1646 9.22636 11.4761 9.02058C12.311 8.51405 12.873 7.59201 12.873 6.54333C12.873 4.9446 11.5789 3.65057 9.98021 3.65057C8.38148 3.65057 7.08746 4.94856 7.08746 6.54333C7.08746 7.59201 7.64543 8.51405 8.48437 9.02058C7.80372 9.22636 7.18243 9.57064 6.65216 10.0178C6.26435 9.67748 5.81322 9.41235 5.31856 9.24218C5.90423 8.83063 6.29205 8.14602 6.29205 7.37436C6.29205 6.11199 5.27107 5.09102 4.00871 5.09102C2.74634 5.09102 1.72537 6.11199 1.72537 7.37436C1.72537 8.14602 2.10922 8.83063 2.69885 9.24218C1.12782 9.78433 0 11.2762 0 13.0293V13.2905C0 13.2984 0.00791452 13.3063 0.015829 13.3063H4.85556C4.82786 13.5239 4.81203 13.7495 4.81203 13.9751V14.2442C4.81203 15.4076 5.75386 16.3494 6.91729 16.3494H13.051C14.2145 16.3494 15.1563 15.4076 15.1563 14.2442V13.9751C15.1563 13.7495 15.1405 13.5239 15.1128 13.3063H19.9842C19.9921 13.3063 20 13.2984 20 13.2905V13.0293C19.9921 11.2723 18.8682 9.78037 17.2972 9.23823ZM14.3372 7.36644C14.3372 6.45627 15.0772 5.71626 15.9873 5.71626C16.8975 5.71626 17.6375 6.45627 17.6375 7.36644C17.6375 8.26474 16.9133 8.99683 16.019 9.01662H15.9557C15.0574 9.00079 14.3372 8.2687 14.3372 7.36644ZM7.7127 6.54333C7.7127 5.29679 8.72576 4.28374 9.9723 4.28374C11.2188 4.28374 12.2319 5.29679 12.2319 6.54333C12.2319 7.74634 11.2861 8.7317 10.1029 8.79897H9.84171C8.65849 8.7317 7.7127 7.74634 7.7127 6.54333ZM2.34666 7.36644C2.34666 6.45627 3.08666 5.71626 3.99683 5.71626C4.907 5.71626 5.64701 6.45627 5.64701 7.36644C5.64701 8.26474 4.92283 8.99683 4.02849 9.01662H3.96518C3.07083 9.00079 2.34666 8.2687 2.34666 7.36644ZM4.96636 12.6692H0.641076C0.819153 10.9834 2.24377 9.66165 3.97309 9.64978H4.02058C4.84369 9.65374 5.59557 9.95845 6.17729 10.4531C5.60744 11.0704 5.18401 11.8302 4.96636 12.6692ZM14.5152 14.2442C14.5152 15.0554 13.8544 15.7163 13.0431 15.7163H6.90938C6.09814 15.7163 5.43728 15.0554 5.43728 14.2442V13.9751C5.43728 11.5176 7.40008 9.50732 9.84171 9.43609C9.88524 9.44005 9.93273 9.44005 9.97626 9.44005C10.0198 9.44005 10.0673 9.44005 10.1108 9.43609C12.5524 9.50732 14.5152 11.5176 14.5152 13.9751V14.2442ZM14.9861 12.6692C14.7685 11.8342 14.353 11.0863 13.7871 10.4689C14.3728 9.96241 15.1326 9.6577 15.9636 9.64978H16.0111C17.7404 9.66165 19.165 10.9834 19.3431 12.6692H14.9861Z" fill="#727272"/>
</g>
<defs>
<clipPath id="clip0_2054_15983">
<rect width="20" height="20" fill="white"/>
</clipPath>
</defs>
</svg>
