<svg width="20" height="20" viewBox="0 0 20 20" fill="none" xmlns="http://www.w3.org/2000/svg">
<g id="Frame" clip-path="url(#clip0_2129_7701)">
<g id="Group">
<path id="Vector" d="M19.707 16.4804C19.6293 16.4804 19.5548 16.5113 19.4999 16.5662C19.4449 16.6212 19.4141 16.6957 19.4141 16.7734V18.7309C19.4141 18.7581 19.392 18.7803 19.3647 18.7803H18.2515V14.4999C18.2515 14.3381 18.1204 14.2069 17.9586 14.2069C17.7967 14.2069 17.6656 14.3381 17.6656 14.4999V18.7803H15.5144L16.0966 18.1398C16.1866 18.0408 16.229 17.9003 16.2101 17.7639C16.2097 17.761 16.2092 17.758 16.2087 17.7551L15.5542 13.8881L15.6747 13.7068L15.706 13.7291C15.76 13.7675 15.8216 13.7937 15.8867 13.8059C15.9517 13.8182 16.0186 13.8162 16.0829 13.8001C16.1471 13.7841 16.2071 13.7543 16.2587 13.7129C16.3103 13.6714 16.3524 13.6193 16.3819 13.56V13.56L17.0479 12.2252L18.5692 12.8144C18.6292 12.8405 19.4139 13.2003 19.4139 14.1364V15.4061C19.4148 15.4832 19.446 15.5569 19.5009 15.6111C19.5557 15.6653 19.6298 15.6958 19.7069 15.6958C19.784 15.6958 19.858 15.6654 19.9129 15.6112C19.9677 15.5569 19.999 15.4833 19.9999 15.4062V14.1365C19.9999 12.7845 18.8403 12.2923 18.791 12.272C18.7891 12.2712 18.7873 12.2705 18.7854 12.2698L16.1949 11.2665V10.7329C16.5993 10.4076 16.8832 9.93871 16.9685 9.40422C17.1702 9.37891 17.3573 9.29816 17.5126 9.16461C17.6226 9.06998 17.7109 8.95268 17.7714 8.82075C17.8319 8.68882 17.8631 8.54537 17.863 8.40024C17.8631 8.16763 17.7827 7.94215 17.6355 7.76207V6.97153C17.6355 5.42442 16.3768 4.16579 14.8298 4.16579C14.1352 4.16579 13.4993 4.42001 13.0088 4.83962C13.0027 4.61692 12.923 4.40252 12.7821 4.22997V3.43946C12.7821 1.89236 11.5234 0.633728 9.97639 0.633728C8.42928 0.633728 7.17065 1.8924 7.17065 3.43946V4.2506C7.02983 4.41888 6.95104 4.62177 6.94409 4.83712C6.62409 4.56337 6.24634 4.36552 5.83909 4.25837C5.68237 4.21712 5.52233 4.3106 5.48112 4.46708C5.43991 4.62356 5.53335 4.78384 5.68983 4.82505C6.66299 5.0813 7.34268 5.96399 7.34268 6.97149V7.40965C7.32444 7.40618 7.30615 7.4029 7.28784 7.39981C7.28385 7.31711 7.26291 7.26661 7.21784 7.20176C7.14284 7.09399 7.00815 6.95973 6.57495 6.49411C6.50051 6.41384 6.40005 6.36253 6.29139 6.34929C6.18273 6.33605 6.07289 6.36172 5.98136 6.42176C5.23936 6.90645 4.33792 7.15348 3.50136 7.10438C3.22886 7.0884 3.05867 7.20813 2.98613 7.40434C2.97964 7.40539 2.90718 7.42 2.90316 7.42098V6.97149C2.90316 6.00005 3.5523 5.1261 4.48171 4.84614C4.51902 4.83545 4.55384 4.81745 4.58413 4.79319C4.61443 4.76894 4.63961 4.7389 4.6582 4.70483C4.67679 4.67076 4.68843 4.63334 4.69244 4.59473C4.69645 4.55613 4.69275 4.51711 4.68155 4.47995C4.67036 4.44279 4.65189 4.40822 4.62722 4.37825C4.60256 4.34829 4.57218 4.32352 4.53786 4.30539C4.50355 4.28726 4.46597 4.27613 4.42731 4.27265C4.38866 4.26916 4.34969 4.27339 4.31269 4.28509C3.74745 4.45532 3.23937 4.80977 2.88214 5.28305C2.51249 5.77266 2.31714 6.35653 2.31714 6.97153V7.7827C2.16957 7.95903 2.08976 8.17332 2.08976 8.40024C2.08976 8.9018 2.45929 9.33922 2.98578 9.40445C3.07203 9.92644 3.35523 10.427 3.80218 10.7674V11.2666L1.21457 12.2698C1.21273 12.2705 1.21089 12.2713 1.20906 12.272C1.15961 12.2923 0 12.7845 0 14.1364V18.7309C0 19.0813 0.284999 19.3662 0.63535 19.3662H9.65764C9.7791 19.3662 9.89798 19.3312 10 19.2653C10.102 19.3312 10.2209 19.3662 10.3424 19.3662H19.3647C19.715 19.3662 20 19.0813 20 18.7309V16.7734C20 16.6957 19.9692 16.6212 19.9142 16.5662C19.8593 16.5113 19.7847 16.4804 19.707 16.4804ZM2.9571 8.7991C2.78535 8.73676 2.67562 8.57789 2.67562 8.40016C2.67562 8.22778 2.80062 8.08614 2.9571 8.01891V8.7991ZM16.4991 12.0127L15.9241 13.1652L15.2762 12.7051L15.9953 11.8175L16.4991 12.0127ZM14.8527 12.2969L14.095 11.3617V11.0806C14.3413 11.1658 14.6066 11.2051 14.8563 11.2052H14.8565C15.1147 11.2051 15.3761 11.1561 15.609 11.0685V11.3635L14.8527 12.2969ZM15.1967 13.3674L15.0889 13.5296H14.6166L14.5088 13.3674L14.8528 13.1231L15.1967 13.3674ZM9.99924 8.76484L9.24154 7.82957V7.54852C9.48686 7.63332 9.75189 7.67297 10.0029 7.67305H10.0031C10.2608 7.67305 10.5222 7.62418 10.7555 7.53641V7.83137L9.99924 8.76484ZM10.3432 9.83535L10.2354 9.99758H9.76311L9.65533 9.83535L9.99928 9.59109L10.3432 9.83535ZM7.69209 5.84426C7.73998 5.85731 7.7892 5.86618 7.83916 5.87235C7.92541 6.39434 8.20862 6.89493 8.65557 7.23528V7.73453L8.05787 7.96621C8.02313 7.89319 7.97969 7.82464 7.9285 7.76203V6.97153C7.9287 6.58345 7.8482 6.19957 7.69209 5.84426ZM11.5561 5.53403C11.5561 6.39157 10.8565 7.087 10.0031 7.087C9.04014 7.087 8.39662 6.34071 8.39662 5.53403V4.16169C9.32174 4.19872 10.2828 3.92454 11.0685 3.43548C11.3327 3.71876 11.4899 3.88333 11.5561 3.95974L11.5561 5.53403ZM12.1151 5.87216C12.1645 5.86623 12.2133 5.85682 12.2614 5.84399C12.1046 6.19922 12.0238 6.58326 12.024 6.97153V7.78266C11.9796 7.83557 11.9408 7.89295 11.9082 7.95387L11.3415 7.73442V7.20082C11.7458 6.87547 12.0298 6.40661 12.1151 5.87216ZM8.85565 8.2859L9.57486 9.17363L9.0844 9.52199L9.08365 9.52258L8.92799 9.63316L8.35287 8.48063L8.85565 8.2859ZM10.6735 8.8634L11.1418 8.28543L11.6456 8.48055L11.0706 9.63316L10.9146 9.52238L10.9141 9.52199L10.4228 9.17297L10.6735 8.8634ZM10.8212 10.1748L10.8526 10.197C10.9065 10.2354 10.9681 10.2616 11.0332 10.2739C11.0982 10.2861 11.1652 10.2841 11.2294 10.268C11.2936 10.252 11.3536 10.2222 11.4052 10.1808C11.4569 10.1394 11.4989 10.0872 11.5285 10.028V10.0279L12.0229 9.03695C12.1928 9.24633 12.4385 9.37367 12.6915 9.40527C12.7809 9.96543 13.0837 10.4435 13.5091 10.7674V11.2666L11.0183 12.2323L10.7007 10.3561L10.8212 10.1748ZM13.7091 11.818L14.4283 12.7057L13.7815 13.1652L13.2063 12.0127L13.7091 11.818ZM16.4095 9.06613C16.4096 9.90273 15.7302 10.6191 14.8565 10.6191C13.8608 10.6191 13.2501 9.83918 13.2501 9.06613V7.69379C14.1686 7.73047 15.1309 7.45993 15.922 6.96758C16.1861 7.25086 16.3433 7.41543 16.4095 7.49184L16.4095 9.06613ZM17.2771 8.4002C17.2771 8.57824 17.167 8.7368 16.9956 8.7991V8.00211C17.1728 8.06664 17.2771 8.22856 17.2771 8.4002ZM12.61 6.97149C12.61 5.74751 13.6058 4.75173 14.8298 4.75173C16.0538 4.75173 17.0495 5.74755 17.0495 6.97149V7.40965C17.0313 7.40612 17.013 7.40284 16.9947 7.39981C16.9907 7.31704 16.9696 7.26641 16.9247 7.20176C16.8477 7.09118 16.7145 6.95922 16.2818 6.49411C16.1307 6.33192 15.8815 6.2954 15.6882 6.42176C14.9663 6.89332 14.0543 7.15969 13.1864 7.10332C12.9426 7.08735 12.766 7.20672 12.6929 7.40438C12.6864 7.40543 12.6141 7.42004 12.61 7.42102L12.61 6.97149ZM12.6641 8.01895V8.79871C12.4918 8.7366 12.3826 8.57731 12.3826 8.40016C12.3826 8.22778 12.5075 8.08621 12.6641 8.01895ZM12.4235 4.86813C12.4235 4.99149 12.3701 5.10817 12.277 5.18821C12.2372 5.22244 12.1914 5.24913 12.142 5.267V4.47001C12.3172 4.5336 12.4235 4.69466 12.4235 4.86813ZM9.97627 1.21966C11.2003 1.21966 12.196 2.21544 12.196 3.43943V3.87759C12.1778 3.87407 12.1595 3.87078 12.1412 3.86774C12.1369 3.77802 12.111 3.72286 12.0582 3.6515C11.9798 3.54532 11.8352 3.39935 11.4283 2.962C11.3538 2.88177 11.2534 2.83048 11.1447 2.81724C11.0361 2.804 10.9262 2.82965 10.8347 2.88966C10.0724 3.38771 9.14756 3.63009 8.30932 3.57005C8.10424 3.55454 7.91116 3.67845 7.83952 3.87224C7.83299 3.87329 7.76061 3.8879 7.75655 3.88888V3.43946C7.75655 2.21544 8.75233 1.21966 9.97627 1.21966ZM7.81057 4.48685V5.26704C7.63881 5.2047 7.52909 5.04583 7.52909 4.86809C7.52909 4.69669 7.65311 4.55454 7.81057 4.48685ZM7.28854 8.00211C7.45245 8.06176 7.55772 8.20477 7.56815 8.37473C7.58127 8.56371 7.46514 8.73461 7.28854 8.79875V8.00211ZM7.26139 9.4052C7.53772 9.37062 7.79135 9.225 7.95768 9.00098L8.4701 10.0279L8.47014 10.028C8.49966 10.0872 8.54169 10.1394 8.59331 10.1808C8.64493 10.2223 8.70493 10.252 8.76916 10.268C8.89779 10.3002 9.03541 10.2756 9.146 10.197L9.17736 10.1748L9.29779 10.3561L8.98033 12.2317L6.488 11.2664V10.7331H6.48796C6.90292 10.3985 7.17811 9.92578 7.26139 9.4052ZM5.14569 12.2969L4.388 11.3617V11.0806C4.63331 11.1654 4.89839 11.2051 5.14936 11.2051H5.14952C5.40645 11.2046 5.66123 11.1583 5.90194 11.0685V11.3635L5.14569 12.2969ZM5.48968 13.3674L5.3819 13.5296H4.9096L4.80183 13.3674L5.14577 13.1231L5.48968 13.3674ZM6.28823 11.8175L6.79213 12.0127L6.21706 13.1652L6.06104 13.0544L6.06057 13.0541L5.56921 12.7051L6.28823 11.8175ZM3.54308 9.06613V7.69379C4.47312 7.73094 5.43479 7.45313 6.21495 6.96758C6.47663 7.24821 6.63624 7.41536 6.70253 7.49184V9.06613C6.70253 9.9182 6.0078 10.6191 5.14952 10.6191C4.19394 10.6191 3.54308 9.88133 3.54308 9.06613ZM4.00214 11.818L4.72136 12.7057L4.23089 13.0541L4.23015 13.0546L4.07448 13.1652L3.49937 12.0127L4.00214 11.818ZM2.33449 18.7803V14.4999C2.33449 14.3381 2.20336 14.2069 2.04152 14.2069C1.87968 14.2069 1.74855 14.3381 1.74855 14.4999V18.7803H0.63535C0.622265 18.7803 0.609718 18.7751 0.600462 18.7658C0.591206 18.7566 0.585996 18.744 0.585975 18.731V14.1364C0.585975 13.1955 1.37883 12.8368 1.43015 12.8146L2.9505 12.2252L3.61656 13.56L3.61659 13.56C3.64612 13.6193 3.68815 13.6714 3.73978 13.7129C3.79141 13.7543 3.85141 13.7841 3.91566 13.8001C4.04429 13.8323 4.18191 13.8076 4.29249 13.7291L4.32386 13.7068L4.44429 13.8881L3.7898 17.7551C3.7893 17.758 3.78884 17.761 3.78843 17.7639C3.7696 17.9003 3.81198 18.0408 3.90195 18.1399L4.48409 18.7803H2.33449V18.7803ZM4.37784 17.7922L5.00007 14.1156H5.29143L5.9137 17.7922L5.14577 18.637L4.37784 17.7922ZM9.70697 18.7309C9.70697 18.7581 9.68486 18.7803 9.65764 18.7803H8.54451V14.4999C8.54451 14.4222 8.51365 14.3477 8.45871 14.2928C8.40376 14.2378 8.32925 14.2069 8.25155 14.2069C8.17385 14.2069 8.09933 14.2378 8.04439 14.2928C7.98944 14.3477 7.95858 14.4222 7.95858 14.4999V18.7803H5.80741L6.38964 18.1398C6.47956 18.0408 6.52194 17.9003 6.50307 17.7639C6.50266 17.761 6.5022 17.758 6.50171 17.7551L5.84721 13.8881L5.96764 13.7068L5.99901 13.7291C6.05298 13.7674 6.11461 13.7936 6.17967 13.8059C6.24472 13.8181 6.31166 13.8162 6.37588 13.8001C6.4401 13.784 6.50008 13.7543 6.55171 13.7128C6.60333 13.6714 6.64537 13.6193 6.67495 13.56V13.56L7.34092 12.2252L8.86221 12.8144C9.30565 13.0073 9.70693 13.5048 9.70693 14.1364L9.70697 18.7309ZM9.99998 13.0718C9.87861 12.8763 9.71705 12.6953 9.52229 12.5409L9.85357 10.5836H10.1449L10.4764 12.5419C10.2764 12.7007 10.117 12.8833 9.99998 13.0718ZM12.0415 18.7803V14.4999C12.0415 14.3381 11.9103 14.2069 11.7485 14.2069C11.5867 14.2069 11.4555 14.3381 11.4555 14.4999V18.7803H10.3424C10.3293 18.7803 10.3167 18.7751 10.3075 18.7658C10.2982 18.7566 10.293 18.744 10.293 18.731V14.1364C10.293 13.7882 10.4022 13.4674 10.6349 13.1979C10.79 13.02 10.9957 12.8759 11.1372 12.8146L12.6576 12.2252L13.3236 13.56L13.3236 13.56C13.3532 13.6193 13.3952 13.6714 13.4468 13.7129C13.4984 13.7543 13.5584 13.7841 13.6227 13.8001C13.7513 13.8323 13.8889 13.8076 13.9995 13.7291L14.0309 13.7068L14.1513 13.8881L13.4968 17.7551C13.4963 17.758 13.4959 17.761 13.4954 17.7639C13.4766 17.9003 13.519 18.0408 13.609 18.1399L14.1911 18.7803H12.0415V18.7803ZM14.0848 17.7922L14.7071 14.1156H14.9984L15.6207 17.7922L14.8527 18.637L14.0848 17.7922Z" fill="#727272"/>
</g>
</g>
<defs>
<clipPath id="clip0_2129_7701">
<rect width="20" height="20" fill="white"/>
</clipPath>
</defs>
</svg>
