<svg width="20" height="20" viewBox="0 0 20 20" fill="none" xmlns="http://www.w3.org/2000/svg">
<g id="Frame" clip-path="url(#clip0_2054_16032)">
<g id="Group">
<path id="Vector" d="M18.6701 10.2591C18.6304 10.1785 18.6098 10.0898 18.6098 10C18.6098 9.91018 18.6304 9.82155 18.6701 9.74097L19.4161 8.215C19.8314 7.36536 19.5023 6.35267 18.6669 5.90943L17.1665 5.11334C17.0871 5.07149 17.0183 5.01193 16.9655 4.93926C16.9127 4.8666 16.8773 4.78276 16.862 4.69424L16.5686 3.02124C16.4052 2.08977 15.5435 1.46383 14.6073 1.59629L12.9256 1.83418C12.8367 1.84703 12.746 1.83928 12.6606 1.81152C12.5752 1.78375 12.4973 1.73673 12.4329 1.67406L11.2122 0.493134C10.5324 -0.16444 9.4676 -0.164479 8.78792 0.493134L7.56714 1.67418C7.50277 1.73683 7.42487 1.78385 7.33944 1.81161C7.25402 1.83937 7.16335 1.84713 7.07445 1.8343L5.3927 1.59641C4.45619 1.46387 3.59486 2.08988 3.43147 3.02136L3.13803 4.69428C3.12278 4.7828 3.08739 4.86664 3.0346 4.93931C2.9818 5.01198 2.91301 5.07155 2.83354 5.11342L1.33316 5.90951C0.497773 6.35271 0.168712 7.36548 0.584022 8.21512L1.32992 9.74105C1.36962 9.82163 1.39027 9.91026 1.39027 10.0001C1.39027 10.0899 1.36962 10.1786 1.32992 10.2591L0.583983 11.7851C0.168673 12.6347 0.497733 13.6474 1.33312 14.0906L2.8335 14.8867C2.91298 14.9286 2.98178 14.9881 3.03458 15.0608C3.08738 15.1335 3.12278 15.2173 3.13803 15.3058L3.43147 16.9788C3.58022 17.8268 4.30732 18.4215 5.14298 18.4214C5.22528 18.4214 5.3088 18.4156 5.39274 18.4037L7.07449 18.1658C7.16339 18.153 7.25406 18.1607 7.33949 18.1885C7.42492 18.2163 7.50283 18.2633 7.56718 18.326L8.78792 19.5069C9.12784 19.8357 9.56385 20.0001 10 20.0001C10.4361 20 10.8724 19.8356 11.2121 19.5069L12.4329 18.326C12.5646 18.1986 12.7441 18.1404 12.9256 18.1658L14.6073 18.4037C15.544 18.5362 16.4052 17.9103 16.5686 16.9788L16.862 15.3059C16.8773 15.2173 16.9127 15.1335 16.9655 15.0608C17.0183 14.9882 17.0871 14.9286 17.1665 14.8867L18.6669 14.0906C19.5023 13.6474 19.8314 12.6347 19.4161 11.785L18.6701 10.2591ZM18.1263 13.0716L16.6259 13.8677C16.1475 14.1216 15.8194 14.5731 15.7259 15.1065L15.4324 16.7794C15.4066 16.9305 15.3227 17.0654 15.1987 17.1555C15.0748 17.2455 14.9205 17.2836 14.7689 17.2616L13.0872 17.0237C12.5508 16.9477 12.0201 17.1203 11.6309 17.4968L10.4101 18.6777C10.3004 18.7847 10.1532 18.8445 10 18.8445C9.84678 18.8445 9.69962 18.7847 9.58991 18.6777L8.36917 17.4968C8.04019 17.1785 7.61011 17.0061 7.16113 17.0061C7.07887 17.0061 6.99594 17.0119 6.91289 17.0236L5.23114 17.2615C5.07952 17.2835 4.92529 17.2455 4.80133 17.1554C4.67738 17.0653 4.5935 16.9304 4.56759 16.7794L4.27412 15.1064C4.18052 14.573 3.85248 14.1215 3.37408 13.8677L1.8737 13.0716C1.73806 13.0003 1.63563 12.8789 1.58828 12.7331C1.54092 12.5874 1.55239 12.4289 1.62023 12.2915L2.36616 10.7656C2.60397 10.279 2.60397 9.72097 2.36616 9.23441L1.62023 7.70844C1.55239 7.57105 1.54092 7.41259 1.58828 7.26686C1.63563 7.12113 1.73806 6.99968 1.8737 6.92841L3.37408 6.13232C3.85244 5.87845 4.18052 5.42697 4.27408 4.89354L4.56751 3.22058C4.59339 3.06955 4.67725 2.93461 4.80122 2.84454C4.92518 2.75448 5.07943 2.71641 5.23106 2.73847L6.91281 2.97636C7.44894 3.05226 7.97984 2.87972 8.36909 2.5032L9.58987 1.32227C9.69958 1.21532 9.84674 1.15546 9.99996 1.15546C10.1532 1.15546 10.3003 1.21532 10.4101 1.32227L11.6308 2.5032C12.02 2.87976 12.5509 3.05226 13.0871 2.97636L14.7688 2.73847C14.9205 2.71643 15.0747 2.75451 15.1987 2.84457C15.3226 2.93463 15.4065 3.06956 15.4324 3.22058L15.7258 4.89358C15.8194 5.42701 16.1474 5.87853 16.6258 6.13232L18.1262 6.92841C18.2619 6.99968 18.3643 7.12113 18.4116 7.26686C18.459 7.41259 18.4475 7.57105 18.3797 7.70844L17.6338 9.23437C17.396 9.72089 17.396 10.279 17.6338 10.7655L18.3797 12.2915C18.4476 12.4289 18.459 12.5873 18.4117 12.7331C18.3643 12.8788 18.2619 13.0003 18.1263 13.0716Z" fill="#727272"/>
<path id="Vector_2" d="M14.2142 5.78576C13.989 5.56053 13.6238 5.56053 13.3986 5.78576L5.78575 13.3986C5.56051 13.6238 5.56051 13.989 5.78575 14.2143C5.83924 14.2679 5.90281 14.3104 5.97279 14.3394C6.04278 14.3684 6.1178 14.3833 6.19356 14.3832C6.34113 14.3832 6.48879 14.3269 6.60137 14.2143L14.2142 6.60146C14.4395 6.37619 14.4395 6.01103 14.2142 5.78576ZM7.69296 4.8092C6.52688 4.8092 5.57817 5.75791 5.57817 6.924C5.57817 8.09008 6.52688 9.03879 7.69296 9.03879C8.85905 9.03879 9.80775 8.09008 9.80775 6.924C9.80775 5.75791 8.85905 4.8092 7.69296 4.8092ZM7.69296 7.88524C7.16293 7.88524 6.73172 7.45403 6.73172 6.92396C6.73172 6.39392 7.16293 5.96271 7.69296 5.96271C8.223 5.96271 8.65425 6.39392 8.65425 6.92396C8.65421 7.45403 8.223 7.88524 7.69296 7.88524ZM12.307 10.9613C11.1409 10.9613 10.1922 11.91 10.1922 13.0761C10.1922 14.2422 11.1409 15.1909 12.307 15.1909C13.4731 15.1909 14.4218 14.2422 14.4218 13.0761C14.4218 11.91 13.4731 10.9613 12.307 10.9613ZM12.307 14.0373C11.777 14.0373 11.3457 13.6061 11.3457 13.0761C11.3457 12.546 11.7769 12.1148 12.307 12.1148C12.837 12.1148 13.2682 12.546 13.2682 13.0761C13.2682 13.6061 12.837 14.0373 12.307 14.0373Z" fill="#727272"/>
</g>
</g>
<defs>
<clipPath id="clip0_2054_16032">
<rect width="20" height="20" fill="white"/>
</clipPath>
</defs>
</svg>
